<?xml version="1.0" encoding="UTF-8"?>
<svg width="394.664857px" height="127.5328px" viewBox="0 0 394.664857 127.5328" version="1.1" xmlns="http://www.w3.org/2000/svg" xmlns:xlink="http://www.w3.org/1999/xlink">
    <title>logo 2 brun</title>
    <defs>
        <polygon id="path-1" points="0 0 125.950801 0 125.950801 121.73543 0 121.73543"></polygon>
    </defs>
    <g id="logo-2-brun" stroke="none" stroke-width="1" fill="none" fill-rule="evenodd">
        <g id="Group-3" opacity="0.80485026" transform="translate(268.714056, 0.000000)">
            <mask id="mask-2" fill="white">
                <use xlink:href="#path-1"></use>
            </mask>
            <g id="Clip-2"></g>
            <path d="M124.789944,48.5012 C125.928944,53.5632 126.117944,58.7272 125.832944,63.8832 C125.490944,70.0502 124.203944,76.0442 121.969944,81.8192 C121.847944,82.1342 121.780944,82.4702 121.687944,82.7972 C121.496944,84.2262 120.672944,84.7862 120.137944,85.8732 C119.247944,88.0352 118.010944,90.0042 116.637944,91.8772 C110.440944,100.3332 102.589944,106.8942 93.5479436,112.1372 C86.3709436,116.2992 78.6719436,118.9062 70.5379436,120.3072 C67.3889436,120.8502 64.2109436,121.1832 61.0209436,121.4232 C58.1069436,121.6432 55.1949436,121.8052 52.2769436,121.7052 C45.3819436,121.4702 38.7279436,120.1972 32.5369436,116.9942 C29.3679436,115.3552 26.5119436,113.2742 23.8949436,110.8652 C22.0599436,109.1762 20.0399436,107.6942 18.3399436,105.8602 C18.1449436,105.6502 10.6859436,95.7602 10.6219436,95.6792 C10.6219436,95.6792 9.8909436,94.0722 9.4699436,93.2922 C8.6769436,91.8252 2.8009436,77.3752 2.4569436,75.9792 C1.3499436,71.4982 0.556943604,66.9672 0.229943604,62.3602 C-0.133056396,57.2332 -0.217056396,52.0952 1.1309436,47.0942 C2.5799436,41.7172 4.1559436,36.4032 7.4199436,31.7022 C10.1799436,27.7252 12.7609436,23.6292 15.9049436,19.9302 C17.5939436,17.9442 19.3309436,16.0042 21.2079436,14.1922 C21.3259436,14.0782 21.4819436,14.0022 21.6209436,13.9092 C23.2909436,11.9832 27.7829436,8.5722 28.0699436,8.3562 C33.8669436,3.9782 40.3599436,1.2672 47.5739436,0.3922 C51.6269436,-0.0998 55.7009436,-0.1338 59.7709436,0.3162 C68.2329436,1.2532 76.5999436,2.7662 84.9529436,4.3782 C85.2569436,4.4372 94.3669436,6.9582 96.8639436,8.3052 C99.6839436,9.8122 102.363944,11.5422 104.972944,13.3852 C106.890944,14.7392 111.447944,18.5792 112.910944,20.5802 C113.844944,21.4092 114.296944,22.6042 115.133944,23.5072 C121.668944,33.5132 123.257944,41.6922 124.789944,48.5012" id="Fill-1" fill="#C9A386" mask="url(#mask-2)"></path>
        </g>
        <path d="M44.25,40.3338 C65.135,40.3338 75.871,52.2508 75.871,52.2508 L66.314,67.8268 C66.314,67.8268 56.875,59.2128 45.193,59.2128 C29.027,59.2128 21.357,71.1308 21.357,83.2848 C21.357,95.7918 29.617,108.6538 45.193,108.6538 C57.938,108.6538 67.611,98.2708 67.611,98.2708 L78.232,113.3738 C78.232,113.3738 66.314,127.5328 44.25,127.5328 C17.818,127.5328 0,108.7718 0,83.7568 C0,59.2128 18.879,40.3338 44.25,40.3338" id="Fill-4" fill="#533E36"></path>
        <path d="M119.7656,60.9832 C119.7656,60.9832 117.8786,70.1872 116.3436,75.4972 L111.5056,91.8982 L128.1446,91.8982 L123.4236,75.4972 C121.8906,70.1872 120.0016,60.9832 120.0016,60.9832 L119.7656,60.9832 Z M132.9826,108.4182 L106.6676,108.4182 L101.5956,126.1172 L80.3556,126.1172 L109.0296,41.7502 L130.7406,41.7502 L159.4136,126.1172 L138.1736,126.1172 L132.9826,108.4182 Z" id="Fill-6" fill="#533E36"></path>
        <polygon id="Fill-8" fill="#533E36" points="180.5352 59.449 154.9302 59.449 154.9302 41.75 226.7892 41.75 226.7892 59.449 201.1832 59.449 201.1832 126.117 180.5352 126.117"></polygon>
        <polygon id="Fill-10" fill="#533E36" points="237.7637 39.9798 255.6997 39.9798 245.1977 70.0688 231.3907 70.0688"></polygon>
        <polygon id="Fill-12" fill="#533E36" points="266.9082 41.7498 318.5902 41.7498 318.5902 59.4488 287.5562 59.4488 287.5562 77.1488 313.2812 77.1488 313.2812 94.8488 287.5562 94.8488 287.5562 126.1168 266.9082 126.1168"></polygon>
        <path d="M360.125,18.6224 L380.303,18.6224 L366.379,36.3224 L350.568,36.3224 L360.125,18.6224 Z M331.689,41.7494 L384.551,41.7494 L384.551,59.4494 L352.338,59.4494 L352.338,74.7894 L378.061,74.7894 L378.061,92.4884 L352.338,92.4884 L352.338,108.4174 L386.203,108.4174 L386.203,126.1174 L331.689,126.1174 L331.689,41.7494 Z" id="Fill-14" fill="#533E36"></path>
    </g>
</svg>