<?xml version="1.0" encoding="UTF-8"?>
<svg width="138px" height="162px" viewBox="0 0 138 162" version="1.1" xmlns="http://www.w3.org/2000/svg" xmlns:xlink="http://www.w3.org/1999/xlink">
    <title>logo 1 negatif copy</title>
    <defs>
        <polygon id="path-1" points="-1.14427595e-15 0 58.0592095 0 58.0592095 32.5291143 -1.14427595e-15 32.5291143"></polygon>
        <polygon id="path-3" points="0 0 26.4681113 0 26.4681113 6.59199441 0 6.59199441"></polygon>
        <polygon id="path-5" points="0 0 19.961865 0 19.961865 22.4227276 0 22.4227276"></polygon>
    </defs>
    <g id="Page-1" stroke="none" stroke-width="1" fill="none" fill-rule="evenodd">
        <g id="logo-1-negatif-copy" transform="translate(0.556927, 0.500000)">
            <g id="Group-3" transform="translate(6.300875, -0.000000)">
                <mask id="mask-2" fill="white">
                    <use xlink:href="#path-1"></use>
                </mask>
                <g id="Clip-2"></g>
                <path d="M36.283557,20.170563 C37.726498,21.765751 39.3865244,23.154859 40.7299411,24.843427 C40.9843883,25.163173 41.2488201,25.041457 41.5461046,24.958381 C46.0269518,23.705157 50.5983048,22.958761 55.2269891,22.539839 C55.6112365,22.505063 56.0012815,22.493471 56.3861731,22.514401 C57.4883482,22.574937 58.0690675,23.082409 58.0592095,23.945369 C58.0497424,24.770655 57.4938236,25.295837 56.4328755,25.339629 C54.9367904,25.401453 53.4680826,25.646817 51.9938994,25.872539 C45.9815378,26.792171 40.1865836,28.439201 34.6528404,30.984933 C33.7255576,31.411583 32.7760508,31.784459 31.8771115,32.277763 C31.0123131,32.752713 30.1491252,32.534075 29.7007828,31.794763 C29.2823943,31.105039 29.4714583,30.236283 30.2161189,29.670529 C31.329889,28.824313 32.6803916,28.443065 33.9838698,27.832553 C33.0437035,26.672709 32.0558687,25.615261 30.7746144,24.866933 C30.2567016,24.197817 29.5171943,23.801757 28.8411378,23.339043 C25.319782,20.929839 21.6567088,18.790149 17.4650939,17.752343 C15.5689793,17.282545 13.6522512,17.137645 11.7474402,17.771663 C10.2745453,18.261747 9.22648052,19.193293 8.63384404,20.644869 C7.63280371,23.095611 7.05755981,25.633937 6.96898643,28.282709 C6.94901715,28.888069 6.91616448,29.498581 6.81825062,30.094925 C6.67588903,30.960461 6.12480152,31.464069 5.40977271,31.472441 C4.69828684,31.480813 4.17006736,30.993305 3.95491455,30.132599 C3.64474665,28.893221 3.88663252,27.652555 3.99775186,26.423481 C4.21258259,24.048087 4.81520371,21.756413 5.73217984,19.552323 C7.16803498,16.100161 9.91992963,14.565831 13.4989387,14.307265 C16.9629634,14.056749 20.1480624,15.113231 23.2413672,16.522625 C26.7321249,18.112983 29.8508744,20.287127 32.829517,22.676367 C34.1181792,23.863581 35.5446939,24.928113 36.3338023,26.563551 C36.4568388,26.818575 36.6343076,26.760937 36.813709,26.692995 C37.0964997,26.585769 37.3654407,26.441191 37.6504859,26.341049 C38.0334451,26.206775 38.0392426,26.028065 37.7677249,25.764347 C36.4671455,24.500819 35.2313052,23.167417 33.7674286,22.081311 C31.0393683,19.620265 28.186661,17.311847 25.1558407,15.236235 C19.3641074,11.269839 13.3440158,7.698215 6.87751427,4.927405 C5.28061661,4.243477 3.62767614,3.703161 1.96410688,3.199231 C1.56955269,3.079769 1.16404762,2.960307 0.807177386,2.762277 C0.159464356,2.402281 -0.135243463,1.816885 0.0589738209,1.086267 C0.242240213,0.396221 0.751778758,0.056189 1.46294254,0.005635 C2.0001804,-0.032361 2.50070056,0.123809 3.00315324,0.271607 C7.98355432,1.734131 12.5925914,4.023873 17.0930857,6.564131 C23.8684668,10.388847 30.3259499,14.654703 35.9907817,20.034357 C36.0648613,20.104553 36.184999,20.126127 36.283557,20.170563" id="Fill-1" fill="#F7F4F3" mask="url(#mask-2)"></path>
            </g>
            <path d="M109.549714,19.1035194 C108.373137,19.3595094 107.37564,20.0125254 106.341102,20.5737714 C103.394668,22.1728234 100.624415,24.0297974 98.1240687,26.2741374 C97.610021,26.7355634 97.1700528,27.2594574 96.7300846,27.8374474 C97.6245148,28.2302874 98.488669,28.5854534 99.329311,28.9889194 C99.7737883,29.2024054 100.213434,29.4571074 100.592851,29.7691254 C101.268263,30.3248974 101.397097,31.1988054 100.965825,31.8473134 C100.520381,32.5177174 99.6939112,32.7579294 98.9170421,32.3238734 C97.0280133,31.2683574 94.9718224,30.6060034 93.0051711,29.7346714 C88.2428216,27.6242834 83.1793225,26.6299474 78.0829708,25.7698854 C76.803649,25.5541454 75.5175634,25.3963654 74.216984,25.3335754 C73.1673088,25.2826994 72.6255618,24.7352994 72.6410087,23.8952014 C72.656804,23.0689494 73.221097,22.5453774 74.2807568,22.5215494 C76.4715793,22.4716394 78.625362,22.8583614 80.7791448,23.1906654 C83.6437692,23.6324494 86.4942218,24.1547334 89.2734937,24.9990174 C89.5778641,25.0914314 89.7852868,25.0624514 89.9991513,24.8119354 C92.8969505,21.4186994 96.2975244,18.5574074 99.6858591,15.6842014 C104.803468,11.7190934 110.296951,8.3419574 115.978853,5.2568754 C119.720515,3.2256994 123.588757,1.4988134 127.674728,0.2797214 C128.203269,0.1219414 128.728912,-0.0413126 129.295782,0.0111734 C129.975059,0.0739634 130.450779,0.4162494 130.635333,1.0628254 C130.831483,1.7499734 130.579613,2.3163714 129.985366,2.7082454 C129.781164,2.8428414 129.547652,2.9516774 129.31253,3.0176874 C122.678544,4.8740174 116.74767,8.2150894 110.909235,11.7422774 C108.4076,13.2534234 105.944938,14.8296134 103.640097,16.6360334 C100.021794,19.3067014 96.5597016,22.1625194 93.3659063,25.3342194 C92.4399118,26.2535294 92.4982092,26.0896314 93.6358136,26.5774614 C93.8741565,26.6798574 94.1543705,26.9728774 94.3814405,26.5095194 C94.9512089,25.3474214 95.8743047,24.4757674 96.8144709,23.6227894 C99.4819793,21.2019934 102.467064,19.2278114 105.563911,17.4107654 C108.056205,16.2258054 110.558162,15.0611314 113.299428,14.5568794 C115.327919,14.1836814 117.366718,14.1009274 119.374596,14.6515474 C122.039528,15.3828094 123.945627,17.0021474 124.99659,19.5961794 C126.234685,22.6513154 126.824101,25.8297774 126.874668,29.1157874 C126.887874,29.9732734 126.665957,30.7518694 126.021787,31.3649574 C124.618463,31.6199814 124.050949,31.2219894 123.816471,29.7897334 C123.750121,29.3853014 123.737882,28.9718534 123.700842,28.5625914 C123.721134,25.6224094 123.046366,22.8329234 121.838225,20.1693394 C121.295833,18.9731094 120.298336,18.2486094 119.089229,17.8145534 C117.174755,17.1270834 115.230006,17.2739154 113.306514,17.7343754 C112.009155,18.0447834 110.691183,18.3445654 109.549714,19.1035194" id="Fill-4" fill="#F7F4F3"></path>
            <path d="M26.5440489,104.751044 C29.0576006,107.100678 31.9003232,109.00563 34.8087512,110.814626 C41.5184269,114.98839 48.7904631,117.600776 56.6335561,118.615076 C60.121093,119.06652 63.6224795,119.144122 67.1338507,119.10194 C70.0612817,119.06652 72.9880685,119.150562 75.9171099,119.004052 C81.6450704,118.717472 87.2007154,117.634586 92.5518364,115.565414 C100.468043,112.504482 107.481445,108.059594 113.375601,101.911326 C114.161166,101.091836 114.912591,100.97817 115.540657,101.55133 C116.184183,102.138336 116.171943,102.98262 115.413433,103.832056 C113.273822,106.22838 110.934196,108.412184 108.366212,110.348048 C101.331231,115.651388 93.5187357,119.242654 84.881703,121.024602 C78.3913673,122.3638 71.8143906,122.331922 65.2370918,122.264302 C59.9484554,122.209562 54.6991133,121.77454 49.5570255,120.445324 C44.1501838,119.047522 39.023234,116.9703 34.2241668,114.10128 C33.9687534,113.948652 33.7407172,113.726794 33.414445,113.720676 C33.414445,113.720354 33.3967303,113.723574 33.3964082,113.723574 C33.3448746,113.511698 33.2157185,113.426046 33.0002436,113.481108 C31.9257679,112.5267 30.6564307,111.845992 29.5036884,110.999132 C26.6880209,108.931248 24.109408,106.608984 21.7649509,104.023002 C21.5807183,103.819498 21.3974519,103.606334 21.2599216,103.370308 C20.8560269,102.677042 20.9668242,101.946424 21.5179117,101.502708 C22.0738305,101.055128 22.7856384,101.105038 23.3831062,101.685926 C24.3693306,102.64452 25.2511995,103.71195 26.3681904,104.534016 C26.3681904,104.534016 26.3598162,104.516628 26.3598162,104.516628 C26.4210124,104.594874 26.4825306,104.672798 26.5440489,104.751044" id="Fill-6" fill="#F7F4F3"></path>
            <path d="M5.6506173,30.272991 C5.50793362,24.381035 6.13696572,18.130049 7.44076599,11.944429 C7.54898657,11.430517 7.67814267,10.920791 7.93484445,10.457111 C8.32553361,9.751931 9.00416681,9.460843 9.67184911,9.702021 C10.2892861,9.925489 10.6670919,10.587199 10.4847918,11.327155 C9.71500851,14.448301 9.41933443,17.636423 9.09370645,20.820681 C8.74456626,24.235169 8.81188204,27.663825 8.75326256,31.088617 C8.65631496,36.742615 9.09563896,42.348313 10.3015254,47.877375 C10.8139627,50.226687 11.7348038,52.451707 12.6511358,54.669643 C12.8215188,55.082125 12.9757975,55.488489 12.9844938,55.939933 C12.9970551,56.587797 12.7213503,57.079813 12.1303243,57.329363 C11.5457399,57.576015 10.9914316,57.452689 10.5224757,57.011227 C10.1933048,56.701463 9.9929679,56.309267 9.80970151,55.904835 C7.70229905,51.255155 6.62750124,46.352061 6.09928177,41.293763 C5.73081647,37.768829 5.59586284,34.242607 5.6506173,30.272991" id="Fill-8" fill="#F7F4F3"></path>
            <path d="M131.106963,39.322962 C130.754601,42.66661 130.40675,46.014444 129.553224,49.276304 C128.94545,51.59889 128.085161,53.84001 127.12889,56.042168 C126.962372,56.42567 126.755916,56.782768 126.436407,57.060332 C125.949737,57.482796 125.381257,57.57038 124.815031,57.308272 C124.239143,57.041978 123.968914,56.531286 124.006276,55.889862 C124.029144,55.502496 124.138653,55.13445 124.301628,54.777352 C126.435763,50.104166 127.447754,45.159856 127.894164,40.070968 C128.065513,38.120936 128.283243,36.177022 128.187906,34.215398 C128.278734,28.74655 128.314163,23.280922 127.586251,17.84041 C127.297341,15.680112 127.076068,13.51273 126.52949,11.39397 C126.326254,10.60507 126.694075,9.924362 127.343721,9.69864 C128.043934,9.455208 128.732874,9.765616 129.105526,10.5455 C129.660801,11.70792 129.782227,12.987548 130.013806,14.23079 C131.563035,22.541932 131.614569,30.920694 131.106963,39.322962" id="Fill-10" fill="#F7F4F3"></path>
            <path d="M19.4298021,89.4012714 C21.0637396,89.1530094 22.6973549,88.9024934 24.3316145,88.6577734 C25.4421637,88.4912994 26.2692781,88.9791294 26.4399832,89.8923214 C26.6061791,90.7787874 25.9632973,91.5322674 24.8514597,91.7367374 C23.4716474,91.9904734 22.0609149,92.0593814 20.7010718,92.4341894 C18.6332858,92.7185154 16.562601,92.9828774 14.49868,93.2910314 C10.3776019,93.9063734 6.26038871,94.5452214 2.14156512,95.1753754 C1.01652205,95.3473234 0.172337144,94.8678654 0.0245001072,93.9701294 C-0.133643651,93.0105694 0.480572534,92.2867134 1.67099887,92.1002754 C4.26056265,91.6945554 6.85399145,91.3133074 9.44580983,90.9198234 C12.7739146,90.4146054 16.1016973,89.9074554 19.4298021,89.4012714" id="Fill-12" fill="#F7F4F3"></path>
            <g id="Group-16" transform="translate(110.533877, 88.630816)">
                <mask id="mask-4" fill="white">
                    <use xlink:href="#path-3"></use>
                </mask>
                <g id="Clip-15"></g>
                <path d="M22.5295588,6.33397115 C19.9957157,5.92825115 17.4641272,5.50932915 14.9280296,5.12035315 C10.5074123,4.44189915 6.08325208,3.78759515 1.6626348,3.10946315 C0.534370881,2.93654915 -0.11913968,2.18886515 0.0180685501,1.30368715 C0.163973076,0.359905146 1.01878679,-0.140804854 2.17861505,0.034685146 C9.46578924,1.13592515 16.7526414,2.23652115 24.0394935,3.33711715 C24.4404893,3.41922715 24.8485711,3.47686515 25.2411928,3.58859915 C26.1417426,3.84458915 26.5926616,4.53302515 26.4383829,5.36861515 C26.2940888,6.15010915 25.5597349,6.65597115 24.6421146,6.58545315 C23.9348158,6.53103515 23.2487747,6.29275515 22.5295588,6.33397115" id="Fill-14" fill="#FFFFFF" mask="url(#mask-4)"></path>
            </g>
            <path d="M21.5696386,94.8936898 C22.7732704,94.6022798 23.9791568,94.3195638 25.1795678,94.0159178 C25.7351645,93.8755258 26.2282767,93.9940218 26.6547173,94.3408158 C27.5923069,95.1026678 27.2702218,96.5120618 26.0266514,96.9541678 C25.0459025,97.3028938 24.0310125,97.5559858 23.0312605,97.8515818 C20.6172331,98.3004498 18.2750306,99.0358978 15.8999755,99.6386818 C12.3190339,100.547688 8.74743282,101.492758 5.17454339,102.433964 C4.76452912,102.541834 4.35709154,102.613962 3.95029812,102.507058 C3.26490114,102.327382 2.85778564,101.87465 2.8155925,101.154336 C2.7659914,100.308442 3.23204847,99.7832598 3.99184709,99.5633338 C5.47440457,99.1337858 6.97210004,98.7560798 8.4656084,98.3654938 C12.7061801,97.2568478 16.9477181,96.1530318 21.1882899,95.0443858 C21.3193785,95.0099318 21.442737,94.9445658 21.5696386,94.8936898" id="Fill-17" fill="#F7F4F3"></path>
            <path d="M10.980384,76.7038132 C11.0344943,74.3892772 11.0351385,72.0705552 11.427116,69.7750172 C11.6020082,68.7529892 12.1440773,68.1943192 12.9547654,68.2725652 C13.786389,68.3527432 14.3207281,69.0994612 14.2076762,70.1005592 C13.5754233,75.6917672 13.9864038,81.2253372 15.0934101,86.7228432 C15.1262628,86.8848092 15.1526737,87.0490292 15.1713547,87.2132492 C15.2728115,88.1010032 14.8421838,88.7736612 14.0427687,88.9829612 C13.2707308,89.1848552 12.5418523,88.7846092 12.2271753,87.9374272 C11.8696608,86.9740032 11.8023451,85.9455352 11.6219774,84.9431492 C11.1327303,82.2193512 10.9224087,79.4723692 10.980384,76.7038132" id="Fill-19" fill="#F7F4F3"></path>
            <path d="M12.9872638,7.2725632 C12.9669724,8.1889752 12.0921894,8.8426352 11.1690937,8.4819952 C9.48426678,7.8235052 7.72858119,7.5073012 5.9683864,7.1807932 C5.75355568,7.1408652 5.53969121,7.0700252 5.33935431,6.9821192 C4.59952495,6.6575432 4.2516731,5.9588032 4.45490877,5.2352692 C4.64622728,4.5529512 5.29071946,4.0818652 6.05341686,4.2312732 C8.02425526,4.6173512 10.015385,4.9457912 11.863509,5.7955492 C12.5022037,6.0892132 12.9953159,6.4891372 12.9872638,7.2725632" id="Fill-21" fill="#F7F4F3"></path>
            <path d="M132.612034,5.6092078 C132.571129,6.3214718 132.214259,6.8225038 131.535948,7.0179578 C130.876962,7.2082598 130.197362,7.3322298 129.521628,7.4574878 C128.353747,7.6741938 127.209701,7.9627058 126.099474,8.3925758 C125.177345,8.7496738 124.434294,8.5068858 124.116396,7.7894698 C123.796888,7.0678678 124.103835,6.3005418 124.960581,5.8851618 C126.892125,4.9487858 128.988899,4.5723678 131.080519,4.2326578 C131.925348,4.0951638 132.60366,4.8029198 132.612034,5.6092078" id="Fill-23" fill="#F7F4F3"></path>
            <path d="M9.17831819,59.5945042 C9.48655358,59.6920702 9.89205866,59.7873822 10.2705086,59.9464502 C11.6944466,60.5440822 13.1148416,61.1497642 14.5255741,61.7773422 C15.4776575,62.2010942 15.8409695,62.9098162 15.5501267,63.6700582 C15.2583176,64.4325542 14.4163873,64.7155922 13.4398255,64.3372422 C11.8973602,63.7392882 10.3632691,63.1197602 8.83014426,62.4976562 C8.57762958,62.3952602 8.32608116,62.2616302 8.11350503,62.0932242 C7.57111381,61.6633542 7.44066936,61.0827882 7.68352149,60.4581082 C7.92218651,59.8440542 8.4629673,59.6424822 9.17831819,59.5945042" id="Fill-25" fill="#F7F4F3"></path>
            <path d="M10.5252457,64.377138 C11.3881115,64.492092 12.4116978,64.555848 13.393413,64.851444 C14.378027,65.147684 14.8160627,65.794904 14.6350509,66.604734 C14.4562937,67.405226 13.7818476,67.729802 12.7353932,67.561718 C11.9192297,67.430664 11.0959804,67.345012 10.276596,67.233278 C10.0591886,67.203654 9.83823825,67.173386 9.63049339,67.107698 C8.8053115,66.847844 8.36985252,66.218012 8.5102816,65.513476 C8.66037323,64.761606 9.33610766,64.348802 10.5252457,64.377138" id="Fill-27" fill="#F7F4F3"></path>
            <path d="M33.0002436,113.481075 C33.2157185,113.426013 33.3448746,113.511665 33.3964082,113.723863 C33.1545224,113.822395 33.0949366,113.623399 33.0002436,113.481075" id="Fill-29" fill="#F7F4F3"></path>
            <path d="M126.02153,76.1704524 C126.186437,79.7829704 125.707819,83.3359184 125.057207,86.8727664 C124.992468,87.2240684 124.911947,87.5782684 124.787622,87.9121824 C124.47069,88.7629064 123.738913,89.1934204 122.990387,89.0034404 C122.123656,88.7831924 121.694639,88.0625564 121.848274,87.0926924 C122.163595,85.1033764 122.560404,83.1224324 122.772336,81.1221684 C123.148209,77.5750164 123.239359,74.0153064 122.835142,70.4581724 C122.81324,70.2662604 122.769437,70.0746704 122.769759,69.8830804 C122.771047,68.9747184 123.321813,68.3027044 124.091274,68.2547264 C124.828849,68.2086804 125.396362,68.7535044 125.557727,69.6528504 C125.944873,71.8096064 125.964198,73.9927664 126.02153,76.1704524" id="Fill-31" fill="#F7F4F3"></path>
            <path d="M126.895153,98.9420348 C126.91319,100.398119 125.964327,101.077217 124.761984,100.747811 C122.927387,100.244847 121.105352,99.6961588 119.280418,99.1593848 C116.740778,98.4126668 114.20307,97.6595088 111.665039,96.9073168 C111.427341,96.8367988 111.187065,96.7682128 110.959351,96.6719348 C110.119031,96.3164468 109.730597,95.5417148 109.974415,94.7328508 C110.198264,93.9893528 110.959351,93.5082848 111.815131,93.7175848 C113.233272,94.0647008 114.630799,94.4965028 116.032835,94.9076968 C119.181216,95.8311928 122.327343,96.7620948 125.473148,97.6946068 C126.268698,97.9306328 126.874862,98.3495548 126.895153,98.9420348" id="Fill-33" fill="#F7F4F3"></path>
            <path d="M62.5354103,93.749334 C62.5102876,93.119824 62.8233543,92.650026 63.3702547,92.44298 C64.6904813,91.943236 65.886061,91.192654 67.1782662,90.638492 C68.0733406,90.25499 68.9123721,90.249516 69.8097011,90.632374 C71.1028725,91.184604 72.3032835,91.923916 73.6164242,92.439438 C74.3810541,92.739864 74.6557927,93.51846 74.3971584,94.223318 C74.1613921,94.866352 73.4763172,95.233432 72.7097548,95.09143 C71.7135458,94.906602 70.8400511,94.408468 70.0213109,93.857848 C68.9806541,93.158142 68.0356566,93.130128 66.9930673,93.851086 C66.2258607,94.38142 65.39005,94.832864 64.4685647,95.058908 C63.3937669,95.322626 62.5486157,94.735942 62.5354103,93.749334" id="Fill-35" fill="#F7F4F3"></path>
            <path d="M50.7937354,82.3082876 C47.9551999,82.0023876 45.0139193,81.3873676 42.0478381,80.9404316 C40.4541613,80.7005416 39.5661728,79.8211596 38.7999324,78.5985256 C38.6730309,78.3956656 38.57093,78.1963476 38.7084603,77.9921996 C38.8537207,77.7774256 39.097539,77.6776056 39.3593942,77.7117376 C42.7432197,78.1515896 46.1396065,78.5173816 49.4657788,79.3123996 C50.6987204,79.6073516 51.2423999,80.7382156 51.9809409,81.5979556 C52.2791917,81.9450716 51.7483955,82.3308276 50.7937354,82.3082876" id="Fill-37" fill="#F7F4F3"></path>
            <path d="M86.1787717,82.3102518 C85.6763191,82.3121838 85.2637281,82.4020218 85.0402011,81.9589498 C84.7889748,81.4617818 85.2998016,81.3120518 85.4782368,81.0106598 C86.7066691,78.9373018 88.8997462,79.0187678 90.8609221,78.6706858 C93.053355,78.2817098 95.2734872,78.0489038 97.4794477,77.7336658 C97.8111953,77.6863318 98.1068694,77.7269038 98.2914241,77.9944858 C98.484031,78.2736598 98.2398905,78.4935858 98.1046148,78.7331538 C97.3525462,80.0639798 96.2693742,80.7472638 94.7095163,80.9861878 C91.8255668,81.4282938 88.9638411,82.0165878 86.1787717,82.3102518" id="Fill-39" fill="#F7F4F3"></path>
            <path d="M129.442137,61.0112076 C129.403165,61.6944916 129.02085,62.1488336 128.422094,62.3941976 C126.74242,63.0826336 125.058882,63.7623756 123.360205,64.4021896 C122.527937,64.7158176 121.748814,64.3931736 121.469244,63.7182616 C121.172926,63.0021336 121.461836,62.2705496 122.280254,61.8867256 C123.948655,61.1045876 125.621242,60.3227716 127.366299,59.7254616 C128.468796,59.3483996 129.458241,59.9988396 129.442137,61.0112076" id="Fill-41" fill="#F7F4F3"></path>
            <path d="M68.1102837,23.963562 C68.1515106,24.920224 67.6290887,25.651486 66.8132472,25.715886 C66.0128659,25.778998 65.4730513,25.192314 65.3178064,24.181878 C65.1171474,22.875846 64.8701081,21.576898 64.6430382,20.27473 C64.600845,20.030654 64.5351397,19.787866 64.5225784,19.54218 C64.4774865,18.660222 64.9371018,18.035864 65.7043084,17.90803 C66.4302881,17.786958 67.0796116,18.192034 67.3134453,19.015066 C67.675791,20.28922 67.8165422,21.609098 68.0043177,22.917384 C68.0513422,23.244214 68.0719556,23.57523 68.1102837,23.963562" id="Fill-43" fill="#F7F4F3"></path>
            <path d="M68.9773045,22.1991308 C68.9773045,21.6214628 68.9547585,21.0425068 68.9824578,20.4661268 C69.0269056,19.5387668 69.5841127,18.9524048 70.3848161,18.9446768 C71.1793999,18.9369488 71.717282,19.4440988 71.7900732,20.3601888 C71.8834778,21.5390308 71.9488611,22.7214148 71.9807475,23.9034768 C72.0084468,24.9348428 71.4625127,25.6094328 70.6321774,25.6670708 C69.7712441,25.7266408 69.1444666,25.0932668 69.0636232,24.0139228 C69.0182093,23.4121048 69.055249,22.8041688 69.055249,22.1991308 C69.0294822,22.1991308 69.0033933,22.1991308 68.9773045,22.1991308" id="Fill-45" fill="#F7F4F3"></path>
            <path d="M128.520009,65.6669734 C128.520974,66.4616694 127.971175,67.0605894 127.081576,67.1887454 C125.993573,67.3452374 124.899128,67.4463454 123.813379,67.6327834 C123.194331,67.7390434 122.676097,67.4176874 122.429057,66.8145814 C122.168491,66.1783094 122.299579,65.5272254 122.889317,65.2171394 C124.358991,64.4449834 125.96072,64.2224814 127.594335,64.5235514 C128.181496,64.6314214 128.491664,65.1237594 128.520009,65.6669734" id="Fill-47" fill="#F7F4F3"></path>
            <path d="M68.4909238,88.146373 C67.6609107,88.079719 66.9455598,87.718757 66.4028465,87.115973 C65.7560997,86.396625 66.3732146,85.067087 67.4412487,84.823655 C68.1453266,84.662977 68.866475,84.650741 69.56701,84.828485 C70.2681891,85.006229 70.6975285,85.481501 70.8292613,86.203103 C70.9551965,86.891217 70.567084,87.297581 70.025337,87.590601 C69.5463965,87.849811 69.0925787,88.197893 68.4909238,88.146373" id="Fill-49" fill="#F7F4F3"></path>
            <path d="M26.5440489,104.751044 C26.4825306,104.672798 26.4210124,104.594874 26.3598162,104.516628 C26.4210124,104.594874 26.4825306,104.672798 26.5440489,104.751044" id="Fill-51" fill="#F7F4F3"></path>
            <path d="M28.1156951,134.87672 C31.1890306,135.482402 34.1283787,136.933978 36.1771617,139.368942 C34.8988061,140.839838 34.2501269,141.570778 32.9353757,143.023642 C32.9353757,143.023642 30.6305351,140.426068 27.4786108,139.805574 C23.9330986,139.1078 20.3943502,141.093574 19.6368062,144.707058 C18.8489862,148.466408 21.3831513,151.933704 25.1476813,152.591228 C28.8213834,153.232974 32.077019,150.988634 32.077019,150.988634 C33.0571238,152.746754 33.5579661,153.623238 34.5809082,155.371054 C31.5858394,157.413822 27.4728133,158.106122 23.9781905,157.422838 C17.4653088,156.149328 11.9045105,150.512396 13.6244446,143.47412 C15.1920325,137.05827 21.9468001,133.66117 28.1156951,134.87672" id="Fill-53" fill="#F7F4F3"></path>
            <path d="M48.0030295,143.057355 C48.0030295,143.057355 47.2599793,145.419547 46.6972968,146.768727 C45.9903201,148.434755 45.6318394,149.266481 44.9052156,150.927035 C46.8161461,151.117659 47.7727387,151.203311 49.686246,151.354973 C49.2797747,149.592667 49.0813703,148.711353 48.6948682,146.947437 C48.3798691,145.519689 48.0684128,143.063151 48.0684128,143.063151 C48.0423239,143.060897 48.0291184,143.059609 48.0030295,143.057355 M50.7597555,155.791811 C47.6767574,155.565767 46.1365467,155.427951 43.0599903,155.103053 C42.270882,156.891119 41.8708523,157.783703 41.059198,159.565651 C38.5295421,159.282613 37.2656803,159.124511 34.742144,158.775785 C38.5395267,151.857293 42.1333516,144.860233 45.5413335,137.741779 C47.8957752,137.983601 49.0742844,138.088895 51.4329132,138.268249 C53.5219568,145.877431 55.8135919,153.400639 58.3174811,160.883597 C55.7775184,160.779269 54.5078592,160.710683 51.9701511,160.540989 C51.4741401,158.642477 51.2319321,157.692577 50.7597555,155.791811" id="Fill-55" fill="#F7F4F3"></path>
            <g id="Group-59" transform="translate(57.789519, 138.670974)">
                <mask id="mask-6" fill="white">
                    <use xlink:href="#path-5"></use>
                </mask>
                <g id="Clip-58"></g>
                <path d="M0,4.647748 C0.0866408777,2.78852 0.129800274,1.859228 0.216119067,0 C6.74413881,0.250516 13.2409163,0.268226 19.7708685,0.053452 C19.8472027,1.913002 19.8855308,2.842616 19.961865,4.702166 C17.117854,4.81873 15.6948823,4.854794 12.8492609,4.882808 C12.9069141,10.72421 12.9642452,16.565934 13.0218985,22.407336 C10.5505399,22.431486 9.31502165,22.428266 6.84366308,22.39027 C6.93320273,16.54919 7.02274237,10.708432 7.11195993,4.867352 C4.26633854,4.823882 2.84368888,4.78009 0,4.647748 Z" id="Fill-57" fill="#F7F4F3" mask="url(#mask-6)"></path>
            </g>
            <path d="M80.5175795,138.117295 C82.4639394,138.011357 83.4369584,137.947923 85.3813858,137.799481 C84.4837348,141.041055 84.0144568,142.659749 83.0356404,145.892307 C81.4848009,145.990839 80.708898,146.033343 79.1570923,146.105793 C79.7258944,142.912197 79.9980563,141.314111 80.5175795,138.117295" id="Fill-60" fill="#F7F4F3"></path>
            <path d="M88.459617,138.01023 C93.1411232,137.548482 97.7913871,136.98144 102.446804,136.304274 C102.730239,138.14386 102.871957,139.063492 103.155391,140.902756 C99.7367808,141.429548 98.0236104,141.6601 94.5917942,142.056482 C94.8056587,143.905406 94.9125909,144.829868 95.1261333,146.67847 C98.0287638,146.343268 99.4784686,146.152644 102.372081,145.725994 C102.643598,147.56719 102.779518,148.487788 103.051036,150.328984 C100.099771,150.764006 98.6210782,150.958494 95.6604724,151.300458 C96.0379561,154.566504 96.2266979,156.199688 96.6041816,159.465734 C94.1450623,159.75006 92.9146974,159.876606 90.4507468,160.098464 L88.459617,138.01023 Z" id="Fill-62" fill="#F7F4F3"></path>
            <path d="M112.38403,128.338284 C114.487889,127.903906 115.537887,127.673676 117.632728,127.186812 C116.608497,129.335518 116.079956,130.407134 114.989376,132.54457 C113.30777,132.90521 112.465195,133.07748 110.778758,133.405276 C111.442897,131.380218 111.764016,130.366562 112.38403,128.338284 M105.975504,135.731726 C110.727224,134.87907 115.436752,133.918544 120.142737,132.842098 C120.573686,134.652704 120.789161,135.557846 121.220111,137.368452 C117.713249,138.202432 115.953376,138.584646 112.423968,139.278234 C112.735103,140.860864 112.890992,141.65234 113.202126,143.23497 C116.070293,142.671148 117.501317,142.366214 120.354991,141.711266 C120.771447,143.525414 120.979514,144.432166 121.396292,146.245992 C118.485287,146.914142 117.025598,147.224872 114.100099,147.799964 C114.423472,149.443452 114.584837,150.265196 114.90821,151.909006 C118.175763,151.274022 121.440095,150.561758 124.675439,149.777688 C125.109932,151.587328 125.32734,152.492148 125.761832,154.301788 C120.451616,155.588822 115.088578,156.665268 109.704604,157.593594 C108.461678,150.306412 107.21843,143.018908 105.975504,135.731726" id="Fill-64" fill="#F7F4F3"></path>
        </g>
    </g>
</svg>